<svg xmlns="http://www.w3.org/2000/svg" width="1000" height="561" viewBox="0 0 1000 561">
  <defs>
    <style>
      .cls-1 {
        fill: none;
        stroke: #000;
        stroke-width: 20px;
        fill-rule: evenodd;
      }
    </style>
  </defs>
  <path class="cls-1" d="M90,159V41l313-1,1,85s-53.885,64.152-90,106c136.066,0,180.158,291-69,291-102.676,0-154.457-32.946-179-45,10.412-23.1,32.38-71.732,46-101,44.09,21.012,80.613,39,121,39s69-12.676,69-53-47.13-43-61-43H183V236l78-91H159.427"/>
  <path class="cls-1" d="M489,162V41H699c122.032,0,239,84.078,239,221S862.372,514,702,514H488V200H612V406h86c55.869,0,116-31.092,116-141S720.143,148,699,148H576.013"/>
</svg>
