<svg xmlns="http://www.w3.org/2000/svg" width="1000" height="561" viewBox="0 0 1000 561">
  <defs>
    <style>
      .cls-1 {
        fill: none;
        stroke: #000;
        stroke-width: 20px;
        fill-rule: evenodd;
      }
    </style>
  </defs>
  <path class="cls-1" d="M157,192s-77.682-45.619-90-53c40.2-82.041,122.091-99,177-99,84.013,0,172,37.083,172,133s-55.3,140.281-65,151-91,92-91,92H427V521H88V438S227.091,300.005,263,263c29.553-30.455,45.336-89.6,6-111.08-14.249-7.78-46.923-8.331-63-.92"/>
  <path id="Shape_2_copy" data-name="Shape 2 copy" class="cls-1" d="M488,157V49H698c122.032,0,239,84.078,239,221S861.372,522,701,522H487V208H611V414h86c55.869,0,116-31.092,116-141S719.143,156,698,156H580.013"/>
</svg>
